<svg width="30" height="30" viewBox="0 0 30 30" fill="none" xmlns="http://www.w3.org/2000/svg">
<rect width="30" height="30" fill="black"/>
<g clip-path="url(#clip0)">
<path d="M25.085 7.733L27 5.901V5.5H20.366L15.638 17.268L10.259 5.5H3.303V5.901L5.54 8.594C5.758 8.793 5.872 9.084 5.843 9.377V19.96C5.912 20.341 5.788 20.733 5.52 21.01L3 24.064V24.46H10.145V24.059L7.625 21.01C7.352 20.732 7.223 20.347 7.278 19.96V10.806L13.55 24.465H14.279L19.672 10.806V21.687C19.672 21.974 19.672 22.033 19.484 22.221L17.544 24.098V24.5H26.956V24.099L25.086 22.268C24.922 22.144 24.837 21.936 24.872 21.734V8.267C24.837 8.064 24.921 7.856 25.085 7.733Z" fill="white"/>
</g>
<defs>
<clipPath id="clip0">
<rect width="24" height="24" fill="white" transform="translate(3 3)"/>
</clipPath>
</defs>
</svg>
