<svg width="199" height="46" viewBox="0 0 199 46" fill="none" xmlns="http://www.w3.org/2000/svg">
<rect width="199" height="46" fill="white"/>
<path fill-rule="evenodd" clip-rule="evenodd" d="M67.3953 29.975L67.3565 29.462H63.0681L63.0919 30.039C63.3556 36.459 67.6938 40.713 75.408 40.713C82.7661 40.713 87.7699 36.898 87.7699 31.123C87.7699 28.001 86.6844 25.791 84.6158 24.283C83.0238 23.122 81.1223 22.467 77.9672 21.785L77.2737 21.637L76.5861 21.493C70.8549 20.296 69.0381 19.253 69.0381 16.153C69.0381 12.946 71.6649 10.904 76.0727 10.904C80.3612 10.904 83.0705 13.517 83.1969 17.631L83.2138 18.168H87.4714L87.4585 17.602C87.3102 11.189 82.9989 6.87304 76.0299 6.87304C69.1992 6.87304 64.6889 10.975 64.6889 16.285C64.6889 19.399 65.7735 21.567 67.845 23.015C69.4231 24.119 71.2519 24.705 74.4777 25.355C74.8071 25.4217 75.1368 25.487 75.4668 25.551C78.5184 26.153 79.8646 26.525 81.0935 27.238C82.6188 28.123 83.375 29.387 83.375 31.345C83.375 34.745 80.5114 36.682 75.4966 36.682C70.6967 36.682 67.7177 34.28 67.3953 29.975ZM96.7319 6.37004V5.81604H92.5002V40.184H96.7319V33.699L101.188 29.335L109.144 39.963L109.309 40.183H114.573L113.902 39.294L104.185 26.421L113.146 17.451L114.092 16.503H108.341L108.178 16.667L96.7319 28.262V6.37004ZM136.572 29.757H137.094L137.127 29.235C137.144 28.9533 137.158 28.6712 137.167 28.389C137.171 28.245 137.173 28.114 137.173 27.998C137.173 21.01 132.551 15.862 125.721 15.862C118.904 15.862 114.048 21.342 114.048 28.265C114.048 35.389 118.685 40.713 125.766 40.713C131.12 40.713 135.257 37.531 136.748 32.705L136.971 31.984H132.533L132.402 32.354C131.466 34.996 128.932 36.749 125.81 36.749C121.73 36.749 118.885 33.942 118.372 29.757H136.573H136.572ZM118.252 26.437C118.966 22.623 121.691 20.092 125.402 20.092C129.226 20.092 131.865 22.54 132.442 26.437H118.253H118.252ZM150.812 20.225H151.362V16.463H146.205V10.046H141.974V16.463H137.698V20.225H141.974V33.479C141.974 37.827 144.22 40.184 148.344 40.184C149.063 40.184 149.684 40.141 150.204 40.068C150.527 40.023 150.748 39.976 150.871 39.942L151.275 39.83V35.891L150.606 36.036C150.41 36.0759 150.213 36.1106 150.015 36.14C149.593 36.2044 149.167 36.2395 148.741 36.245C146.934 36.245 146.205 35.393 146.205 33.258V20.225H150.812ZM163.938 40.713C169.75 40.713 173.853 36.968 174.884 31.669L175.014 31.004H170.778L170.67 31.418C169.788 34.799 167.392 36.748 163.938 36.748C159.63 36.748 156.657 33.288 156.657 28.31C156.657 23.293 159.624 19.826 163.938 19.826C167.392 19.826 169.788 21.776 170.67 25.157L170.778 25.571H175.014L174.884 24.906C173.853 19.606 169.75 15.862 163.938 15.862C157.187 15.862 152.414 21.381 152.414 28.31C152.414 35.2 157.194 40.713 163.938 40.713ZM182.915 6.36904V5.81604H178.692V40.184H182.915V26.281C182.915 22.215 185.37 19.829 189.096 19.829C192.654 19.829 194.441 21.906 194.441 25.838V40.184H198.664V25.216C198.664 19.661 195.252 15.97 189.624 15.97C186.729 15.97 184.401 17.04 182.915 18.574V6.37004V6.36904Z" fill="black"/>
<path fill-rule="evenodd" clip-rule="evenodd" d="M11.0077 1.497L25.2262 0L39.4458 1.497L50.4545 16.214L25.2272 45.471L0 16.214L11.0077 1.497Z" fill="#FDB300"/>
<path fill-rule="evenodd" clip-rule="evenodd" d="M10.2186 16.391L25.2272 45.471L0 16.391H10.2186Z" fill="#EA6C00"/>
<path fill-rule="evenodd" clip-rule="evenodd" d="M40.2388 16.391L25.2293 45.471L50.4565 16.391H40.2388Z" fill="#EA6C00"/>
<path fill-rule="evenodd" clip-rule="evenodd" d="M9.98981 16.391H39.9473L24.9685 45.471L9.98981 16.391Z" fill="#FDAD00"/>
<path fill-rule="evenodd" clip-rule="evenodd" d="M24.7059 0L10.7639 1.513L9.98981 16.391L24.7059 0Z" fill="#FDD231"/>
<path fill-rule="evenodd" clip-rule="evenodd" d="M25.2233 0L39.1652 1.513L39.9393 16.391L25.2233 0Z" fill="#FDD231"/>
<path fill-rule="evenodd" clip-rule="evenodd" d="M50.4565 16.391L39.419 1.586L40.211 16.391H50.4565Z" fill="#FDAD00"/>
<path fill-rule="evenodd" clip-rule="evenodd" d="M0 16.391L11.0365 1.586L10.2445 16.391H0Z" fill="#FDAD00"/>
<path fill-rule="evenodd" clip-rule="evenodd" d="M24.9685 0L9.98981 16.391H39.9473L24.9685 0Z" fill="#FEEEB7"/>
</svg>
